<svg width="155" height="30" viewBox="0 0 155 30" fill="none" xmlns="http://www.w3.org/2000/svg">
                      <path d="M12.416 19.608V23.448H10.928V21H1.712L1.696 23.448H0.208L0.224 19.608H0.768C1.472 19.5653 1.968 19.0107 2.256 17.944C2.544 16.8667 2.72 15.352 2.784 13.4L2.896 9.8H10.768V19.608H12.416ZM4.192 13.544C4.13867 15.1227 4.01067 16.4293 3.808 17.464C3.616 18.4987 3.30133 19.2133 2.864 19.608H9.184V11.192H4.272L4.192 13.544ZM17.7919 21.096C16.9492 21.096 16.1919 20.9093 15.5199 20.536C14.8479 20.1627 14.3199 19.6507 13.9359 19C13.5625 18.3387 13.3759 17.592 13.3759 16.76C13.3759 15.928 13.5625 15.1867 13.9359 14.536C14.3199 13.8747 14.8479 13.3627 15.5199 13C16.1919 12.6267 16.9492 12.44 17.7919 12.44C18.6345 12.44 19.3865 12.6267 20.0479 13C20.7199 13.3627 21.2425 13.8747 21.6159 14.536C21.9999 15.1867 22.1919 15.928 22.1919 16.76C22.1919 17.592 21.9999 18.3387 21.6159 19C21.2425 19.6507 20.7199 20.1627 20.0479 20.536C19.3865 20.9093 18.6345 21.096 17.7919 21.096ZM17.7919 19.752C18.3359 19.752 18.8212 19.6293 19.2479 19.384C19.6852 19.128 20.0265 18.776 20.2719 18.328C20.5172 17.8693 20.6399 17.3467 20.6399 16.76C20.6399 16.1733 20.5172 15.656 20.2719 15.208C20.0265 14.7493 19.6852 14.3973 19.2479 14.152C18.8212 13.9067 18.3359 13.784 17.7919 13.784C17.2479 13.784 16.7572 13.9067 16.3199 14.152C15.8932 14.3973 15.5519 14.7493 15.2959 15.208C15.0505 15.656 14.9279 16.1733 14.9279 16.76C14.9279 17.3467 15.0505 17.8693 15.2959 18.328C15.5519 18.776 15.8932 19.128 16.3199 19.384C16.7572 19.6293 17.2479 19.752 17.7919 19.752ZM28.7299 12.808C29.5192 12.808 30.2232 12.984 30.8419 13.336C31.4605 13.688 31.9405 14.1787 32.2819 14.808C32.6339 15.4267 32.8099 16.136 32.8099 16.936C32.8099 17.7573 32.6232 18.488 32.2499 19.128C31.8872 19.7573 31.3699 20.248 30.6979 20.6C30.0365 20.952 29.2792 21.128 28.4259 21.128C26.9859 21.128 25.8712 20.6373 25.0819 19.656C24.3032 18.664 23.9139 17.272 23.9139 15.48C23.9139 13.7413 24.2712 12.3813 24.9859 11.4C25.7005 10.408 26.7939 9.752 28.2659 9.432L32.1379 8.568L32.3619 9.976L28.7939 10.744C27.6845 10.9893 26.8579 11.4053 26.3139 11.992C25.7699 12.5787 25.4605 13.4213 25.3859 14.52C25.7485 13.976 26.2179 13.5547 26.7939 13.256C27.3699 12.9573 28.0152 12.808 28.7299 12.808ZM28.4579 19.848C29.0019 19.848 29.4819 19.7253 29.8979 19.48C30.3245 19.2347 30.6552 18.8987 30.8899 18.472C31.1245 18.0347 31.2419 17.5387 31.2419 16.984C31.2419 16.1413 30.9859 15.464 30.4739 14.952C29.9619 14.44 29.2899 14.184 28.4579 14.184C27.6259 14.184 26.9485 14.44 26.4259 14.952C25.9139 15.464 25.6579 16.1413 25.6579 16.984C25.6579 17.5387 25.7752 18.0347 26.0099 18.472C26.2552 18.8987 26.5912 19.2347 27.0179 19.48C27.4445 19.7253 27.9245 19.848 28.4579 19.848ZM37.9495 12.44C39.1228 12.44 40.0188 12.728 40.6375 13.304C41.2668 13.88 41.5815 14.7387 41.5815 15.88V21H40.1255V19.88C39.8695 20.2747 39.5015 20.5787 39.0215 20.792C38.5522 20.9947 37.9922 21.096 37.3415 21.096C36.3922 21.096 35.6295 20.8667 35.0535 20.408C34.4882 19.9493 34.2055 19.3467 34.2055 18.6C34.2055 17.8533 34.4775 17.256 35.0215 16.808C35.5655 16.3493 36.4295 16.12 37.6135 16.12H40.0455V15.816C40.0455 15.1547 39.8535 14.648 39.4695 14.296C39.0855 13.944 38.5202 13.768 37.7735 13.768C37.2722 13.768 36.7815 13.8533 36.3015 14.024C35.8215 14.184 35.4162 14.4027 35.0855 14.68L34.4455 13.528C34.8828 13.176 35.4055 12.9093 36.0135 12.728C36.6215 12.536 37.2668 12.44 37.9495 12.44ZM37.5975 19.912C38.1842 19.912 38.6908 19.784 39.1175 19.528C39.5442 19.2613 39.8535 18.888 40.0455 18.408V17.224H37.6775C36.3762 17.224 35.7255 17.6613 35.7255 18.536C35.7255 18.9627 35.8908 19.2987 36.2215 19.544C36.5522 19.7893 37.0108 19.912 37.5975 19.912ZM50.1234 16.6C51.222 16.8773 51.7714 17.5653 51.7714 18.664C51.7714 19.4107 51.4887 19.9867 50.9234 20.392C50.3687 20.7973 49.5367 21 48.4274 21H44.3474V12.52H48.2834C49.286 12.52 50.07 12.712 50.6354 13.096C51.2007 13.4693 51.4834 14.0027 51.4834 14.696C51.4834 15.144 51.3607 15.5333 51.1154 15.864C50.8807 16.184 50.55 16.4293 50.1234 16.6ZM45.8514 16.168H48.1554C48.742 16.168 49.1847 16.0613 49.4834 15.848C49.7927 15.6347 49.9474 15.3253 49.9474 14.92C49.9474 14.1093 49.35 13.704 48.1554 13.704H45.8514V16.168ZM48.3154 19.816C48.9554 19.816 49.4354 19.7147 49.7554 19.512C50.0754 19.3093 50.2354 18.9947 50.2354 18.568C50.2354 18.1307 50.086 17.8053 49.7874 17.592C49.4994 17.3787 49.0407 17.272 48.4114 17.272H45.8514V19.816H48.3154ZM54.1755 12.52H55.7115V18.696L60.9115 12.52H62.3035V21H60.7675V14.824L55.5835 21H54.1755V12.52ZM71.6049 13.864H68.5009V21H66.9649V13.864H63.8609V12.52H71.6049V13.864ZM77.0955 15.4C78.1728 15.4107 78.9942 15.656 79.5595 16.136C80.1248 16.616 80.4075 17.2933 80.4075 18.168C80.4075 19.0853 80.0982 19.7947 79.4795 20.296C78.8715 20.7867 77.9968 21.0267 76.8555 21.016L73.1755 21V12.52H74.7115V15.384L77.0955 15.4ZM76.7275 19.848C77.4208 19.8587 77.9435 19.72 78.2955 19.432C78.6582 19.144 78.8395 18.7173 78.8395 18.152C78.8395 17.5973 78.6635 17.192 78.3115 16.936C77.9702 16.68 77.4422 16.5467 76.7275 16.536L74.7115 16.504V19.832L76.7275 19.848ZM94.5315 12.52V21H92.9955V13.864H88.2115V21H86.6755V12.52H94.5315ZM102 12.44C102.821 12.44 103.557 12.6213 104.208 12.984C104.858 13.3467 105.365 13.8533 105.728 14.504C106.101 15.1547 106.288 15.9067 106.288 16.76C106.288 17.6133 106.101 18.3707 105.728 19.032C105.365 19.6827 104.858 20.1893 104.208 20.552C103.557 20.9147 102.821 21.096 102 21.096C101.392 21.096 100.832 20.9787 100.32 20.744C99.8183 20.5093 99.3916 20.168 99.0396 19.72V24.104H97.5036V12.52H98.9756V13.864C99.317 13.3947 99.749 13.0427 100.272 12.808C100.794 12.5627 101.37 12.44 102 12.44ZM101.872 19.752C102.416 19.752 102.901 19.6293 103.328 19.384C103.765 19.128 104.106 18.776 104.352 18.328C104.608 17.8693 104.736 17.3467 104.736 16.76C104.736 16.1733 104.608 15.656 104.352 15.208C104.106 14.7493 103.765 14.3973 103.328 14.152C102.901 13.9067 102.416 13.784 101.872 13.784C101.338 13.784 100.853 13.912 100.416 14.168C99.989 14.4133 99.6476 14.76 99.3916 15.208C99.1463 15.656 99.0236 16.1733 99.0236 16.76C99.0236 17.3467 99.1463 17.8693 99.3916 18.328C99.637 18.776 99.9783 19.128 100.416 19.384C100.853 19.6293 101.338 19.752 101.872 19.752ZM112.151 21.096C111.309 21.096 110.551 20.9093 109.879 20.536C109.207 20.1627 108.679 19.6507 108.295 19C107.922 18.3387 107.735 17.592 107.735 16.76C107.735 15.928 107.922 15.1867 108.295 14.536C108.679 13.8747 109.207 13.3627 109.879 13C110.551 12.6267 111.309 12.44 112.151 12.44C112.994 12.44 113.746 12.6267 114.407 13C115.079 13.3627 115.602 13.8747 115.975 14.536C116.359 15.1867 116.551 15.928 116.551 16.76C116.551 17.592 116.359 18.3387 115.975 19C115.602 19.6507 115.079 20.1627 114.407 20.536C113.746 20.9093 112.994 21.096 112.151 21.096ZM112.151 19.752C112.695 19.752 113.181 19.6293 113.607 19.384C114.045 19.128 114.386 18.776 114.631 18.328C114.877 17.8693 114.999 17.3467 114.999 16.76C114.999 16.1733 114.877 15.656 114.631 15.208C114.386 14.7493 114.045 14.3973 113.607 14.152C113.181 13.9067 112.695 13.784 112.151 13.784C111.607 13.784 111.117 13.9067 110.679 14.152C110.253 14.3973 109.911 14.7493 109.655 15.208C109.41 15.656 109.287 16.1733 109.287 16.76C109.287 17.3467 109.41 17.8693 109.655 18.328C109.911 18.776 110.253 19.128 110.679 19.384C111.117 19.6293 111.607 19.752 112.151 19.752ZM127.331 19.656V22.968H125.891V21H118.803V22.968H117.347V19.656H117.795C118.339 19.624 118.712 19.24 118.915 18.504C119.117 17.768 119.256 16.728 119.331 15.384L119.459 12.52H126.035V19.656H127.331ZM120.739 15.496C120.696 16.5627 120.605 17.448 120.467 18.152C120.339 18.8453 120.099 19.3467 119.747 19.656H124.499V13.864H120.819L120.739 15.496ZM136.9 12.52L132.788 21.848C132.425 22.712 131.998 23.32 131.508 23.672C131.028 24.024 130.446 24.2 129.764 24.2C129.348 24.2 128.942 24.1307 128.548 23.992C128.164 23.864 127.844 23.672 127.588 23.416L128.244 22.264C128.681 22.68 129.188 22.888 129.764 22.888C130.137 22.888 130.446 22.7867 130.692 22.584C130.948 22.392 131.177 22.056 131.38 21.576L131.652 20.984L127.908 12.52H129.508L132.468 19.304L135.396 12.52H136.9ZM141.768 17.416H140.008V21H138.472V12.52H140.008V16.104H141.8L144.552 12.52H146.2L142.984 16.6L146.424 21H144.616L141.768 17.416ZM154.214 13.864H151.11V21H149.574V13.864H146.47V12.52H154.214V13.864Z" fill="white"/>
                    </svg>