<svg  width="120" height="30" viewBox="0 0 120 30" fill="none" xmlns="http://www.w3.org/2000/svg">
                    <path d="M1.744 9.8H3.328V18.44L9.952 9.8H11.424V21H9.856V12.376L3.216 21H1.744V9.8ZM18.3559 21.096C17.4919 21.096 16.7185 20.9093 16.0359 20.536C15.3639 20.1627 14.8359 19.6507 14.4519 19C14.0679 18.3387 13.8759 17.592 13.8759 16.76C13.8759 15.928 14.0679 15.1867 14.4519 14.536C14.8359 13.8747 15.3639 13.3627 16.0359 13C16.7185 12.6267 17.4919 12.44 18.3559 12.44C19.1239 12.44 19.8065 12.5947 20.4039 12.904C21.0119 13.2133 21.4812 13.6613 21.8119 14.248L20.6439 15C20.3772 14.5947 20.0465 14.2907 19.6519 14.088C19.2572 13.8853 18.8199 13.784 18.3399 13.784C17.7852 13.784 17.2839 13.9067 16.8359 14.152C16.3985 14.3973 16.0519 14.7493 15.7959 15.208C15.5505 15.656 15.4279 16.1733 15.4279 16.76C15.4279 17.3573 15.5505 17.8853 15.7959 18.344C16.0519 18.792 16.3985 19.1387 16.8359 19.384C17.2839 19.6293 17.7852 19.752 18.3399 19.752C18.8199 19.752 19.2572 19.6507 19.6519 19.448C20.0465 19.2453 20.3772 18.9413 20.6439 18.536L21.8119 19.272C21.4812 19.8587 21.0119 20.312 20.4039 20.632C19.8065 20.9413 19.1239 21.096 18.3559 21.096ZM30.0111 13.864H26.9071V21H25.3711V13.864H22.2671V12.52H30.0111V13.864ZM34.8388 21.096C33.9961 21.096 33.2388 20.9093 32.5668 20.536C31.8948 20.1627 31.3668 19.6507 30.9828 19C30.6094 18.3387 30.4228 17.592 30.4228 16.76C30.4228 15.928 30.6094 15.1867 30.9828 14.536C31.3668 13.8747 31.8948 13.3627 32.5668 13C33.2388 12.6267 33.9961 12.44 34.8388 12.44C35.6814 12.44 36.4334 12.6267 37.0948 13C37.7668 13.3627 38.2894 13.8747 38.6628 14.536C39.0468 15.1867 39.2388 15.928 39.2388 16.76C39.2388 17.592 39.0468 18.3387 38.6628 19C38.2894 19.6507 37.7668 20.1627 37.0948 20.536C36.4334 20.9093 35.6814 21.096 34.8388 21.096ZM34.8388 19.752C35.3828 19.752 35.8681 19.6293 36.2948 19.384C36.7321 19.128 37.0734 18.776 37.3188 18.328C37.5641 17.8693 37.6868 17.3467 37.6868 16.76C37.6868 16.1733 37.5641 15.656 37.3188 15.208C37.0734 14.7493 36.7321 14.3973 36.2948 14.152C35.8681 13.9067 35.3828 13.784 34.8388 13.784C34.2948 13.784 33.8041 13.9067 33.3668 14.152C32.9401 14.3973 32.5988 14.7493 32.3428 15.208C32.0974 15.656 31.9748 16.1733 31.9748 16.76C31.9748 17.3467 32.0974 17.8693 32.3428 18.328C32.5988 18.776 32.9401 19.128 33.3668 19.384C33.8041 19.6293 34.2948 19.752 34.8388 19.752ZM45.9528 12.44C46.7741 12.44 47.5101 12.6213 48.1608 12.984C48.8114 13.3467 49.3181 13.8533 49.6808 14.504C50.0541 15.1547 50.2408 15.9067 50.2408 16.76C50.2408 17.6133 50.0541 18.3707 49.6808 19.032C49.3181 19.6827 48.8114 20.1893 48.1608 20.552C47.5101 20.9147 46.7741 21.096 45.9528 21.096C45.3448 21.096 44.7848 20.9787 44.2728 20.744C43.7714 20.5093 43.3448 20.168 42.9928 19.72V24.104H41.4568V12.52H42.9288V13.864C43.2701 13.3947 43.7021 13.0427 44.2248 12.808C44.7474 12.5627 45.3234 12.44 45.9528 12.44ZM45.8248 19.752C46.3688 19.752 46.8541 19.6293 47.2808 19.384C47.7181 19.128 48.0594 18.776 48.3048 18.328C48.5608 17.8693 48.6888 17.3467 48.6888 16.76C48.6888 16.1733 48.5608 15.656 48.3048 15.208C48.0594 14.7493 47.7181 14.3973 47.2808 14.152C46.8541 13.9067 46.3688 13.784 45.8248 13.784C45.2914 13.784 44.8061 13.912 44.3688 14.168C43.9421 14.4133 43.6008 14.76 43.3448 15.208C43.0994 15.656 42.9768 16.1733 42.9768 16.76C42.9768 17.3467 43.0994 17.8693 43.3448 18.328C43.5901 18.776 43.9314 19.128 44.3688 19.384C44.8061 19.6293 45.2914 19.752 45.8248 19.752ZM52.4724 12.52H54.0084V18.696L59.2084 12.52H60.6004V21H59.0644V14.824L53.8804 21H52.4724V12.52ZM70.3818 12.52V21H69.0058V18.312H66.5418H66.3658L64.5098 21H62.8618L64.9258 18.104C64.2858 17.912 63.7951 17.5973 63.4538 17.16C63.1124 16.712 62.9418 16.1573 62.9418 15.496C62.9418 14.5253 63.2724 13.7893 63.9338 13.288C64.5951 12.776 65.5071 12.52 66.6698 12.52H70.3818ZM64.5098 15.544C64.5098 16.1093 64.6858 16.5307 65.0378 16.808C65.4004 17.0747 65.9391 17.208 66.6538 17.208H69.0058V13.864H66.7178C65.2458 13.864 64.5098 14.424 64.5098 15.544Z" fill="white"/>
                    </svg>