<svg width="173" height="22" viewBox="0 0 173 22" fill="none" xmlns="http://www.w3.org/2000/svg">
<path d="M9.58 19.24C7.884 19.24 6.348 18.872 4.972 18.136C3.612 17.384 2.54 16.352 1.756 15.04C0.988 13.728 0.604 12.248 0.604 10.6C0.604 8.952 0.996 7.472 1.78 6.16C2.564 4.848 3.636 3.824 4.996 3.088C6.372 2.336 7.908 1.96 9.604 1.96C10.98 1.96 12.236 2.2 13.372 2.68C14.508 3.16 15.468 3.856 16.252 4.768L14.236 6.664C13.02 5.352 11.524 4.696 9.748 4.696C8.596 4.696 7.564 4.952 6.652 5.464C5.74 5.96 5.028 6.656 4.516 7.552C4.004 8.448 3.748 9.464 3.748 10.6C3.748 11.736 4.004 12.752 4.516 13.648C5.028 14.544 5.74 15.248 6.652 15.76C7.564 16.256 8.596 16.504 9.748 16.504C11.524 16.504 13.02 15.84 14.236 14.512L16.252 16.432C15.468 17.344 14.5 18.04 13.348 18.52C12.212 19 10.956 19.24 9.58 19.24ZM24.1409 13.864H21.8129V19H18.8129V6.184H21.8129V11.368H24.2129L28.0049 6.184H31.2209L26.5649 12.352L31.5329 19H28.0049L24.1409 13.864ZM45.2648 6.184V19H42.2648V8.728H37.4648L37.3448 11.272C37.2648 12.968 37.1048 14.392 36.8648 15.544C36.6408 16.68 36.2488 17.584 35.6888 18.256C35.1448 18.912 34.3928 19.24 33.4328 19.24C32.9848 19.24 32.4328 19.152 31.7768 18.976L31.9208 16.456C32.1448 16.504 32.3368 16.528 32.4968 16.528C33.1048 16.528 33.5608 16.288 33.8648 15.808C34.1688 15.312 34.3608 14.728 34.4408 14.056C34.5368 13.368 34.6168 12.392 34.6808 11.128L34.8968 6.184H45.2648ZM54.0811 6.04C55.9691 6.04 57.4091 6.496 58.4011 7.408C59.4091 8.304 59.9131 9.664 59.9131 11.488V19H57.0811V17.44C56.7131 18 56.1851 18.432 55.4971 18.736C54.8251 19.024 54.0091 19.168 53.0491 19.168C52.0891 19.168 51.2491 19.008 50.5291 18.688C49.8091 18.352 49.2491 17.896 48.8491 17.32C48.4651 16.728 48.2731 16.064 48.2731 15.328C48.2731 14.176 48.6971 13.256 49.5451 12.568C50.4091 11.864 51.7611 11.512 53.6011 11.512H56.9131V11.32C56.9131 10.424 56.6411 9.736 56.0971 9.256C55.5691 8.776 54.7771 8.536 53.7211 8.536C53.0011 8.536 52.2891 8.648 51.5851 8.872C50.8971 9.096 50.3131 9.408 49.8331 9.808L48.6571 7.624C49.3291 7.112 50.1371 6.72 51.0811 6.448C52.0251 6.176 53.0251 6.04 54.0811 6.04ZM53.6731 16.984C54.4251 16.984 55.0891 16.816 55.6651 16.48C56.2571 16.128 56.6731 15.632 56.9131 14.992V13.504H53.8171C52.0891 13.504 51.2251 14.072 51.2251 15.208C51.2251 15.752 51.4411 16.184 51.8731 16.504C52.3051 16.824 52.9051 16.984 53.6731 16.984ZM77.3054 16.456V21.856H74.4974V19H64.6094V21.856H61.8254V16.456H62.4254C63.2414 16.424 63.7934 15.904 64.0814 14.896C64.3854 13.872 64.5854 12.432 64.6814 10.576L64.8494 6.184H75.4094V16.456H77.3054ZM67.4174 10.792C67.3534 12.264 67.2334 13.464 67.0574 14.392C66.8814 15.32 66.5614 16.008 66.0974 16.456H72.4094V8.728H67.4894L67.4174 10.792ZM86.8576 2.2H89.9776V19H86.8576V2.2ZM101.506 6.04C103.122 6.04 104.418 6.512 105.394 7.456C106.37 8.4 106.858 9.8 106.858 11.656V19H103.858V12.04C103.858 10.92 103.594 10.08 103.066 9.52C102.538 8.944 101.786 8.656 100.81 8.656C99.7056 8.656 98.8336 8.992 98.1936 9.664C97.5536 10.32 97.2336 11.272 97.2336 12.52V19H94.2336V6.184H97.0896V7.84C97.5856 7.248 98.2096 6.8 98.9616 6.496C99.7136 6.192 100.562 6.04 101.506 6.04ZM110.951 2.2H118.295C120.087 2.2 121.679 2.552 123.071 3.256C124.463 3.944 125.543 4.928 126.311 6.208C127.079 7.472 127.463 8.936 127.463 10.6C127.463 12.264 127.079 13.736 126.311 15.016C125.543 16.28 124.463 17.264 123.071 17.968C121.679 18.656 120.087 19 118.295 19H110.951V2.2ZM118.151 16.36C119.383 16.36 120.463 16.128 121.391 15.664C122.335 15.184 123.055 14.512 123.551 13.648C124.063 12.768 124.319 11.752 124.319 10.6C124.319 9.448 124.063 8.44 123.551 7.576C123.055 6.696 122.335 6.024 121.391 5.56C120.463 5.08 119.383 4.84 118.151 4.84H114.071V16.36H118.151ZM133.347 8.056C134.211 6.712 135.731 6.04 137.907 6.04V8.896C137.651 8.848 137.419 8.824 137.211 8.824C136.043 8.824 135.131 9.168 134.475 9.856C133.819 10.528 133.491 11.504 133.491 12.784V19H130.491V6.184H133.347V8.056ZM140.452 6.184H143.452V19H140.452V6.184ZM141.964 4.072C141.42 4.072 140.964 3.904 140.596 3.568C140.228 3.216 140.044 2.784 140.044 2.272C140.044 1.76 140.228 1.336 140.596 0.999999C140.964 0.647999 141.42 0.472 141.964 0.472C142.508 0.472 142.964 0.639999 143.332 0.975999C143.7 1.296 143.884 1.704 143.884 2.2C143.884 2.728 143.7 3.176 143.332 3.544C142.98 3.896 142.524 4.072 141.964 4.072ZM159.39 6.184L153.894 19H150.798L145.302 6.184H148.422L152.406 15.688L156.51 6.184H159.39ZM172.961 12.664C172.961 12.872 172.945 13.168 172.913 13.552H162.857C163.033 14.496 163.489 15.248 164.225 15.808C164.977 16.352 165.905 16.624 167.009 16.624C168.417 16.624 169.577 16.16 170.489 15.232L172.097 17.08C171.521 17.768 170.793 18.288 169.913 18.64C169.033 18.992 168.041 19.168 166.937 19.168C165.529 19.168 164.289 18.888 163.217 18.328C162.145 17.768 161.313 16.992 160.721 16C160.145 14.992 159.857 13.856 159.857 12.592C159.857 11.344 160.137 10.224 160.697 9.232C161.273 8.224 162.065 7.44 163.073 6.88C164.081 6.32 165.217 6.04 166.481 6.04C167.729 6.04 168.841 6.32 169.817 6.88C170.809 7.424 171.577 8.2 172.121 9.208C172.681 10.2 172.961 11.352 172.961 12.664ZM166.481 8.44C165.521 8.44 164.705 8.728 164.033 9.304C163.377 9.864 162.977 10.616 162.833 11.56H170.105C169.977 10.632 169.585 9.88 168.929 9.304C168.273 8.728 167.457 8.44 166.481 8.44Z" fill="#3D495B"/>
</svg>
