<svg  width="120" height="30" viewBox="0 0 120 30" fill="none" xmlns="http://www.w3.org/2000/svg">
                    <path d="M5.648 16.072H3.312V21H1.744V9.8H3.312V14.664H5.68L9.2 9.8H10.912L6.912 15.224L11.104 21H9.28L5.648 16.072ZM16.0106 21.096C15.168 21.096 14.4106 20.9093 13.7386 20.536C13.0666 20.1627 12.5386 19.6507 12.1546 19C11.7813 18.3387 11.5946 17.592 11.5946 16.76C11.5946 15.928 11.7813 15.1867 12.1546 14.536C12.5386 13.8747 13.0666 13.3627 13.7386 13C14.4106 12.6267 15.168 12.44 16.0106 12.44C16.8533 12.44 17.6053 12.6267 18.2666 13C18.9386 13.3627 19.4613 13.8747 19.8346 14.536C20.2186 15.1867 20.4106 15.928 20.4106 16.76C20.4106 17.592 20.2186 18.3387 19.8346 19C19.4613 19.6507 18.9386 20.1627 18.2666 20.536C17.6053 20.9093 16.8533 21.096 16.0106 21.096ZM16.0106 19.752C16.5546 19.752 17.04 19.6293 17.4666 19.384C17.904 19.128 18.2453 18.776 18.4906 18.328C18.736 17.8693 18.8586 17.3467 18.8586 16.76C18.8586 16.1733 18.736 15.656 18.4906 15.208C18.2453 14.7493 17.904 14.3973 17.4666 14.152C17.04 13.9067 16.5546 13.784 16.0106 13.784C15.4666 13.784 14.976 13.9067 14.5386 14.152C14.112 14.3973 13.7706 14.7493 13.5146 15.208C13.2693 15.656 13.1466 16.1733 13.1466 16.76C13.1466 17.3467 13.2693 17.8693 13.5146 18.328C13.7706 18.776 14.112 19.128 14.5386 19.384C14.976 19.6293 15.4666 19.752 16.0106 19.752ZM27.1246 12.44C27.946 12.44 28.682 12.6213 29.3326 12.984C29.9833 13.3467 30.49 13.8533 30.8526 14.504C31.226 15.1547 31.4126 15.9067 31.4126 16.76C31.4126 17.6133 31.226 18.3707 30.8526 19.032C30.49 19.6827 29.9833 20.1893 29.3326 20.552C28.682 20.9147 27.946 21.096 27.1246 21.096C26.5166 21.096 25.9566 20.9787 25.4446 20.744C24.9433 20.5093 24.5166 20.168 24.1646 19.72V24.104H22.6286V12.52H24.1006V13.864C24.442 13.3947 24.874 13.0427 25.3966 12.808C25.9193 12.5627 26.4953 12.44 27.1246 12.44ZM26.9966 19.752C27.5406 19.752 28.026 19.6293 28.4526 19.384C28.89 19.128 29.2313 18.776 29.4766 18.328C29.7326 17.8693 29.8606 17.3467 29.8606 16.76C29.8606 16.1733 29.7326 15.656 29.4766 15.208C29.2313 14.7493 28.89 14.3973 28.4526 14.152C28.026 13.9067 27.5406 13.784 26.9966 13.784C26.4633 13.784 25.978 13.912 25.5406 14.168C25.114 14.4133 24.7726 14.76 24.5166 15.208C24.2713 15.656 24.1486 16.1733 24.1486 16.76C24.1486 17.3467 24.2713 17.8693 24.5166 18.328C24.762 18.776 25.1033 19.128 25.5406 19.384C25.978 19.6293 26.4633 19.752 26.9966 19.752ZM38.1425 16.584C38.7078 16.7333 39.1452 16.9733 39.4545 17.304C39.7638 17.6347 39.9185 18.0453 39.9185 18.536C39.9185 19.0373 39.7478 19.4853 39.4065 19.88C39.0652 20.264 38.5905 20.568 37.9825 20.792C37.3852 21.0053 36.7132 21.112 35.9665 21.112C35.3372 21.112 34.7185 21.032 34.1105 20.872C33.5132 20.7013 32.9798 20.4613 32.5105 20.152L32.9745 18.984C33.3798 19.24 33.8438 19.4427 34.3665 19.592C34.8892 19.7307 35.4172 19.8 35.9505 19.8C36.6758 19.8 37.2518 19.6773 37.6785 19.432C38.1158 19.176 38.3345 18.8347 38.3345 18.408C38.3345 18.0133 38.1585 17.7093 37.8065 17.496C37.4652 17.2827 36.9798 17.176 36.3505 17.176H34.7985V16.072H36.2385C36.8145 16.072 37.2678 15.9707 37.5985 15.768C37.9292 15.5653 38.0945 15.288 38.0945 14.936C38.0945 14.552 37.8972 14.2533 37.5025 14.04C37.1185 13.8267 36.5958 13.72 35.9345 13.72C35.0918 13.72 34.2012 13.9387 33.2625 14.376L32.8465 13.192C33.8812 12.6693 34.9638 12.408 36.0945 12.408C36.7772 12.408 37.3905 12.504 37.9345 12.696C38.4785 12.888 38.9052 13.16 39.2145 13.512C39.5238 13.864 39.6785 14.264 39.6785 14.712C39.6785 15.128 39.5398 15.5013 39.2625 15.832C38.9852 16.1627 38.6118 16.4133 38.1425 16.584ZM42.2536 12.52H43.7896V18.696L48.9896 12.52H50.3816V21H48.8456V14.824L43.6616 21H42.2536V12.52ZM53.363 12.52H54.899V16.12H59.731V12.52H61.267V21H59.731V17.448H54.899V21H53.363V12.52ZM67.2776 12.44C68.451 12.44 69.347 12.728 69.9656 13.304C70.595 13.88 70.9096 14.7387 70.9096 15.88V21H69.4536V19.88C69.1976 20.2747 68.8296 20.5787 68.3496 20.792C67.8803 20.9947 67.3203 21.096 66.6696 21.096C65.7203 21.096 64.9576 20.8667 64.3816 20.408C63.8163 19.9493 63.5336 19.3467 63.5336 18.6C63.5336 17.8533 63.8056 17.256 64.3496 16.808C64.8936 16.3493 65.7576 16.12 66.9416 16.12H69.3736V15.816C69.3736 15.1547 69.1816 14.648 68.7976 14.296C68.4136 13.944 67.8483 13.768 67.1016 13.768C66.6003 13.768 66.1096 13.8533 65.6296 14.024C65.1496 14.184 64.7443 14.4027 64.4136 14.68L63.7736 13.528C64.211 13.176 64.7336 12.9093 65.3416 12.728C65.9496 12.536 66.595 12.44 67.2776 12.44ZM66.9256 19.912C67.5123 19.912 68.019 19.784 68.4456 19.528C68.8723 19.2613 69.1816 18.888 69.3736 18.408V17.224H67.0056C65.7043 17.224 65.0536 17.6613 65.0536 18.536C65.0536 18.9627 65.219 19.2987 65.5496 19.544C65.8803 19.7893 66.339 19.912 66.9256 19.912Z" fill="white"/>
                    </svg>