<svg width="120" height="30" viewBox="0 0 120 30" fill="none" xmlns="http://www.w3.org/2000/svg">
                    <path d="M6.752 21.128C5.632 21.128 4.61867 20.8827 3.712 20.392C2.816 19.8907 2.112 19.208 1.6 18.344C1.088 17.4693 0.832 16.488 0.832 15.4C0.832 14.312 1.088 13.336 1.6 12.472C2.112 11.5973 2.82133 10.9147 3.728 10.424C4.63467 9.92267 5.648 9.672 6.768 9.672C7.64267 9.672 8.44267 9.82133 9.168 10.12C9.89333 10.408 10.512 10.84 11.024 11.416L9.984 12.424C9.14133 11.5387 8.09067 11.096 6.832 11.096C6 11.096 5.248 11.2827 4.576 11.656C3.904 12.0293 3.376 12.5467 2.992 13.208C2.61867 13.8587 2.432 14.5893 2.432 15.4C2.432 16.2107 2.61867 16.9467 2.992 17.608C3.376 18.2587 3.904 18.7707 4.576 19.144C5.248 19.5173 6 19.704 6.832 19.704C8.08 19.704 9.13067 19.256 9.984 18.36L11.024 19.368C10.512 19.944 9.888 20.3813 9.152 20.68C8.42667 20.9787 7.62667 21.128 6.752 21.128ZM16.245 21.096C15.4023 21.096 14.645 20.9093 13.973 20.536C13.301 20.1627 12.773 19.6507 12.389 19C12.0157 18.3387 11.829 17.592 11.829 16.76C11.829 15.928 12.0157 15.1867 12.389 14.536C12.773 13.8747 13.301 13.3627 13.973 13C14.645 12.6267 15.4023 12.44 16.245 12.44C17.0877 12.44 17.8397 12.6267 18.501 13C19.173 13.3627 19.6957 13.8747 20.069 14.536C20.453 15.1867 20.645 15.928 20.645 16.76C20.645 17.592 20.453 18.3387 20.069 19C19.6957 19.6507 19.173 20.1627 18.501 20.536C17.8397 20.9093 17.0877 21.096 16.245 21.096ZM16.245 19.752C16.789 19.752 17.2743 19.6293 17.701 19.384C18.1383 19.128 18.4797 18.776 18.725 18.328C18.9703 17.8693 19.093 17.3467 19.093 16.76C19.093 16.1733 18.9703 15.656 18.725 15.208C18.4797 14.7493 18.1383 14.3973 17.701 14.152C17.2743 13.9067 16.789 13.784 16.245 13.784C15.701 13.784 15.2103 13.9067 14.773 14.152C14.3463 14.3973 14.005 14.7493 13.749 15.208C13.5037 15.656 13.381 16.1733 13.381 16.76C13.381 17.3467 13.5037 17.8693 13.749 18.328C14.005 18.776 14.3463 19.128 14.773 19.384C15.2103 19.6293 15.701 19.752 16.245 19.752ZM28.8705 13.864H25.7665V21H24.2305V13.864H21.1265V12.52H28.8705V13.864ZM34.9371 12.44C35.7585 12.44 36.4945 12.6213 37.1451 12.984C37.7958 13.3467 38.3025 13.8533 38.6651 14.504C39.0385 15.1547 39.2251 15.9067 39.2251 16.76C39.2251 17.6133 39.0385 18.3707 38.6651 19.032C38.3025 19.6827 37.7958 20.1893 37.1451 20.552C36.4945 20.9147 35.7585 21.096 34.9371 21.096C34.3291 21.096 33.7691 20.9787 33.2571 20.744C32.7558 20.5093 32.3291 20.168 31.9771 19.72V24.104H30.4411V12.52H31.9131V13.864C32.2545 13.3947 32.6865 13.0427 33.2091 12.808C33.7318 12.5627 34.3078 12.44 34.9371 12.44ZM34.8091 19.752C35.3531 19.752 35.8385 19.6293 36.2651 19.384C36.7025 19.128 37.0438 18.776 37.2891 18.328C37.5451 17.8693 37.6731 17.3467 37.6731 16.76C37.6731 16.1733 37.5451 15.656 37.2891 15.208C37.0438 14.7493 36.7025 14.3973 36.2651 14.152C35.8385 13.9067 35.3531 13.784 34.8091 13.784C34.2758 13.784 33.7905 13.912 33.3531 14.168C32.9265 14.4133 32.5851 14.76 32.3291 15.208C32.0838 15.656 31.9611 16.1733 31.9611 16.76C31.9611 17.3467 32.0838 17.8693 32.3291 18.328C32.5745 18.776 32.9158 19.128 33.3531 19.384C33.7905 19.6293 34.2758 19.752 34.8091 19.752ZM48.7904 12.52L44.6784 21.848C44.3157 22.712 43.889 23.32 43.3984 23.672C42.9184 24.024 42.337 24.2 41.6544 24.2C41.2384 24.2 40.833 24.1307 40.4384 23.992C40.0544 23.864 39.7344 23.672 39.4784 23.416L40.1344 22.264C40.5717 22.68 41.0784 22.888 41.6544 22.888C42.0277 22.888 42.337 22.7867 42.5824 22.584C42.8384 22.392 43.0677 22.056 43.2704 21.576L43.5424 20.984L39.7984 12.52H41.3984L44.3584 19.304L47.2864 12.52H48.7904ZM58.5339 19.656V22.968H57.0939V21H50.0059V22.968H48.5499V19.656H48.9979C49.5419 19.624 49.9152 19.24 50.1179 18.504C50.3205 17.768 50.4592 16.728 50.5339 15.384L50.6619 12.52H57.2379V19.656H58.5339ZM51.9419 15.496C51.8992 16.5627 51.8085 17.448 51.6699 18.152C51.5419 18.8453 51.3019 19.3467 50.9499 19.656H55.7019V13.864H52.0219L51.9419 15.496ZM60.5349 12.52H62.0709V16.12H66.9029V12.52H68.4389V21H66.9029V17.448H62.0709V21H60.5349V12.52ZM71.4255 12.52H72.9615V18.696L78.1615 12.52H79.5535V21H78.0175V14.824L72.8335 21H71.4255V12.52ZM85.8309 17.416H84.0709V21H82.5349V12.52H84.0709V16.104H85.8629L88.6149 12.52H90.2629L87.0469 16.6L90.4869 21H88.6789L85.8309 17.416ZM92.0974 12.52H93.6334V18.696L98.8334 12.52H100.225V21H98.6894V14.824L93.5054 21H92.0974V12.52Z" fill="#3D495B"/>
                    </svg>