<svg width="18" height="18" viewBox="0 0 18 18" fill="none" xmlns="http://www.w3.org/2000/svg">
<path fill-rule="evenodd" clip-rule="evenodd" d="M13.4364 2.43726C13.5856 2.43726 13.7287 2.49652 13.8341 2.60201L17.2727 6.04061C17.4924 6.26027 17.4924 6.61643 17.2727 6.8361C17.0531 7.05577 16.6969 7.05577 16.4772 6.8361L13.9989 4.35775V14.9998C13.9989 15.3104 13.7471 15.5623 13.4364 15.5623C13.1257 15.5623 12.8739 15.3104 12.8739 14.9998V4.35775L10.3956 6.8361C10.1759 7.05577 9.81973 7.05577 9.60006 6.8361C9.38039 6.61643 9.38039 6.26027 9.60006 6.04061L13.0387 2.60201C13.1441 2.49652 13.2872 2.43726 13.4364 2.43726Z" fill="#E7E7E7"/>
<path fill-rule="evenodd" clip-rule="evenodd" d="M5.31384 15.5623C5.46303 15.5623 5.6061 15.503 5.71159 15.3975L9.15019 11.9589C9.36985 11.7392 9.36985 11.3831 9.15019 11.1634C8.93052 10.9437 8.57436 10.9437 8.35469 11.1634L5.87634 13.6418V2.99976C5.87634 2.6891 5.6245 2.43726 5.31384 2.43726C5.00318 2.43726 4.75134 2.6891 4.75134 2.99976V13.6418L2.27299 11.1634C2.05332 10.9437 1.69717 10.9437 1.4775 11.1634C1.25783 11.3831 1.25783 11.7392 1.4775 11.9589L4.91609 15.3975C5.02158 15.503 5.16466 15.5623 5.31384 15.5623Z" fill="#C6C6C6"/>
</svg>
